# 3ds Max Wavefront OBJ Exporter v0.97b - (c)2007 guruware
# 创建的文件:09.12.2019 10:04:33

mtllib unity_ex_OBJ.mtl

#
# object Box001
#

v  12.3054 6.1672 -34.2405
v  6.9692 6.1551 -28.7600
v  8.1191 6.1640 -22.3347
v  47.5838 4.2537 14.4979
v  39.5459 4.8740 11.3852
v  43.3742 4.0894 20.2477
v  -22.4688 11.4259 -10.9857
v  -25.8922 9.6784 -10.5412
v  -24.7129 9.8876 -4.0448
v  49.8506 0.0000 5.1454
v  49.8506 0.0000 -6.0464
v  49.8506 5.4438 -7.2691
v  -1.7364 4.8740 35.4662
v  -7.0407 0.0000 35.4576
v  4.7565 0.0000 35.4588
v  49.8506 -0.5225 16.9352
v  49.8506 4.7268 8.7827
v  49.8506 4.2836 26.2740
v  -49.4468 11.5829 -16.7366
v  -49.4468 0.0000 -29.0641
v  -49.4468 7.5584 -6.7345
v  10.4472 5.0979 -37.7384
v  9.7005 0.0339 -37.7792
v  -3.7242 3.6515 -37.7663
v  -5.2307 0.0165 -37.7442
v  -40.0411 11.9962 -19.3977
v  -42.3580 12.7164 -14.9575
v  -34.5054 9.3125 -14.9602
v  -46.8338 0.0000 35.4682
v  -41.7044 5.3901 35.4671
v  -49.4468 5.5325 35.4273
v  -1.7728 5.1517 23.4539
v  -5.0910 5.5978 25.6923
v  2.7731 4.8740 28.0287
v  -8.0169 6.9324 10.8159
v  -9.3202 6.0284 18.7503
v  -4.5218 5.2319 17.6212
v  11.7815 5.3091 -11.2914
v  7.2683 4.6644 -10.1960
v  14.4255 5.0930 -3.5921
v  -25.7099 7.9433 11.3311
v  -25.4288 6.5438 17.7096
v  -20.4325 6.7537 13.2699
v  -20.8089 14.1493 -17.9696
v  -27.9389 14.3171 -21.9856
v  -23.3590 11.9479 -14.1551
v  28.3899 4.4420 24.1056
v  21.3195 4.8740 19.3052
v  22.2984 4.1004 30.2420
v  -20.5371 9.5347 -32.3705
v  -27.0804 11.9897 -32.1422
v  -29.3521 14.6134 -26.7635
v  -34.4144 13.3975 -30.7485
v  -41.3989 13.4058 -33.7264
v  -37.5799 13.1965 -24.5372
v  5.0055 7.5818 2.6533
v  -0.9157 8.6101 4.0141
v  1.8286 6.1554 6.3539
v  12.1571 5.9457 -1.9606
v  8.6616 5.0485 0.7066
v  12.6920 5.0572 4.9974
v  -0.0557 9.1619 1.3703
v  -1.9240 6.4467 -27.6708
v  -9.9595 5.9906 -31.1901
v  -6.9257 7.2008 -21.9647
v  -32.2328 5.8819 19.2225
v  -37.6502 5.2137 17.3320
v  -30.9450 6.2377 24.0501
v  22.0816 4.9124 -37.7651
v  21.7253 0.0348 -37.7440
v  -11.4203 6.2944 2.7131
v  -13.4139 6.5788 2.3478
v  -16.6058 7.2168 6.7649
v  12.0669 5.7631 -36.8954
v  4.7853 6.0867 -32.3793
v  -41.1708 -0.0000 35.4668
v  -31.0002 6.9032 2.9271
v  -27.0111 9.0588 3.6005
v  30.2024 5.2572 -28.6276
v  24.7625 5.1704 -20.3014
v  27.8827 5.8425 -9.7864
v  -15.3376 13.0632 -11.0224
v  -17.8931 12.8124 -10.3105
v  -14.7306 11.4073 -16.6761
v  -10.4369 11.6767 -14.1041
v  -9.1917 10.1869 -17.0168
v  49.8506 0.0000 -35.1907
v  49.8506 5.6625 -37.7818
v  49.8506 5.7066 -28.8066
v  -22.8339 9.4815 -1.6928
v  -19.8227 11.6136 -4.2188
v  -24.4115 6.3995 31.0225
v  -28.3219 5.6024 30.4607
v  -32.4148 5.4235 35.4677
v  40.1944 4.1725 22.9897
v  32.8759 4.4640 27.3420
v  -27.1916 8.7435 5.2837
v  -27.8444 7.7226 9.9987
v  -43.2017 13.5109 -18.0642
v  49.8506 0.0000 9.2424
v  -22.4700 0.0024 -37.7796
v  -41.8515 12.2299 -37.7737
v  -23.0122 8.2633 -37.7674
v  -23.4824 6.4115 22.5811
v  6.6565 4.8079 12.5703
v  7.1754 4.7554 18.8959
v  12.2885 5.2889 19.8334
v  -49.4468 9.7311 -37.7679
v  4.3106 4.7465 17.7801
v  -24.4481 9.2952 5.2760
v  -25.4360 9.3804 4.4772
v  -8.6307 11.3549 -7.5197
v  -11.5048 10.0388 -6.1251
v  -4.1717 9.3991 -3.6790
v  -5.5213 7.4945 -19.2323
v  1.0523 5.2085 -12.4949
v  0.8253 5.1230 -14.9565
v  -0.8927 5.7626 10.5085
v  -41.9073 6.1095 17.9870
v  -40.6910 6.4773 11.9141
v  -43.3663 8.9108 10.2478
v  14.5687 4.8824 -15.7109
v  11.0613 4.6767 -17.7850
v  -33.4870 6.5759 9.3007
v  -35.1651 7.1799 8.8196
v  -38.8095 5.7518 15.5344
v  3.7164 6.1845 -24.0815
v  7.6098 4.7004 -17.9329
v  4.6487 4.5885 -10.5753
v  -26.9745 7.9238 10.9095
v  32.0256 5.1192 3.7161
v  23.8375 5.4940 13.1595
v  31.6865 5.3421 10.4541
v  17.8659 5.5192 8.4955
v  22.4309 5.7940 8.1937
v  16.1280 4.8246 1.9791
v  -10.1038 6.7973 -21.5083
v  -16.0931 10.1176 -21.1818
v  -9.5271 7.4240 -19.8746
v  -41.7994 15.3272 -25.6357
v  0.3944 5.1558 13.9032
v  -48.0132 15.4254 -31.6582
v  -44.4036 15.4979 -32.5738
v  -49.4468 14.4601 -37.5188
v  -45.9927 9.0460 11.1919
v  -45.7636 6.3512 25.2101
v  -5.7802 11.4053 -13.2283
v  -5.8756 12.3127 -10.5999
v  21.7448 5.1508 -27.6468
v  18.9393 5.0793 -21.7108
v  -20.2028 12.3821 -11.0252
v  -49.4468 6.0839 23.8922
v  -48.1705 7.2512 17.8117
v  -36.2840 6.9865 -1.3934
v  -35.4058 7.2138 5.5795
v  -33.4407 8.0966 -5.6222
v  -21.0955 14.0370 -19.6264
v  -41.9001 7.4979 5.5526
v  -43.8536 9.8610 5.3374
v  -26.1826 0.0000 35.4792
v  -19.3528 6.2464 32.2433
v  -24.5524 6.3000 33.7217
v  -19.1803 5.2826 35.4672
v  -49.4468 5.5187 27.8453
v  -49.4468 0.0000 32.0351
v  -9.9543 4.9193 35.4664
v  35.2128 5.4175 -1.2932
v  25.4169 5.3568 -0.1196
v  8.4400 4.8740 21.7783
v  26.5370 5.1929 -29.6896
v  21.8344 6.0544 -33.7446
v  31.9232 5.5493 -37.7790
v  25.5739 5.5746 -36.2706
v  31.5672 5.5387 -34.0303
v  34.4268 5.6667 -16.0075
v  -46.6441 10.1163 5.5340
v  -47.8831 9.4665 4.8100
v  -49.4468 7.5821 7.7602
v  -47.2130 10.2182 -6.3931
v  -45.6838 10.6569 -4.8163
v  -44.3539 12.5506 -11.8866
v  -9.0398 6.0895 -34.3607
v  -2.8093 6.1334 -32.1242
v  -10.7990 6.1302 -36.4625
v  -20.2134 9.0924 -35.6812
v  -27.8954 11.7178 -36.4207
v  -37.3295 5.9192 28.8977
v  -40.6635 5.7770 29.7533
v  -41.3341 5.9944 26.4783
v  -49.4468 0.0092 3.8253
v  -49.4468 7.7686 1.4650
v  -33.0297 6.5565 4.9922
v  -49.4468 13.9393 -32.3623
v  -49.4468 13.2388 -22.1586
v  -4.7038 7.2909 7.7858
v  -45.2557 9.7827 6.0528
v  -21.2858 9.0231 -0.2560
v  12.5255 4.9662 9.5172
v  36.3134 5.3533 8.9988
v  19.9236 4.9367 -12.1268
v  25.0304 5.1958 -15.1780
v  20.3845 5.3306 -8.4018
v  25.1311 5.2567 -5.4171
v  44.8394 4.5663 31.2324
v  40.5574 4.0918 29.0864
v  32.2695 4.5940 31.5625
v  -14.6473 7.3290 -0.7684
v  -18.9929 8.1415 0.7071
v  -18.0413 7.4197 3.4619
v  -34.2852 14.3791 -36.8410
v  -39.5124 13.1276 -36.9315
v  -39.5436 13.4368 -36.0829
v  49.8506 -0.5225 35.5129
v  49.8506 4.1197 35.4677
v  47.0854 4.1417 35.4587
v  -34.2230 7.0062 16.4757
v  -31.2337 6.5275 10.1393
v  -49.4468 4.8808 9.2675
v  -33.3592 10.1577 -17.6935
v  -12.9245 12.5862 -13.9368
v  -38.2914 6.6177 4.1237
v  -31.5762 8.6852 -6.9277
v  -27.6881 9.1871 -10.5387
v  -22.3378 10.2014 -27.0528
v  -16.3720 8.2161 -31.5618
v  -17.9199 12.0011 -5.7841
v  -9.6840 6.0624 -37.6760
v  -17.4797 8.5106 -37.5596
v  13.5286 4.8788 12.3688
v  5.4215 4.8342 10.2676
v  49.8506 4.9346 4.8791
v  43.2298 4.9205 6.4955
v  -45.1824 13.0651 -16.6373
v  -35.8059 5.6791 33.1191
v  -43.7889 12.0238 -5.0796
v  -20.1834 10.6653 -26.6021
v  5.7059 4.7385 -7.9919
v  22.8322 5.2608 -17.2161
v  -46.0169 15.0978 -29.2192
v  40.5351 5.1161 0.6527
v  4.3407 4.8740 33.9649
v  9.5104 4.8740 28.2467
v  0.6149 6.4458 -29.5126
v  12.3727 4.9732 14.3670
v  -14.5974 6.2904 15.0299
v  -7.8833 5.7122 21.7709
v  -49.4468 9.1256 -1.5718
v  -49.4468 11.8742 -29.5249
v  -3.2217 5.5597 -37.5141
v  -30.8243 13.4810 -30.3002
v  -18.9707 11.4292 -25.9232
v  -18.0018 12.6441 -20.2104
v  16.9765 5.1909 16.8540
v  14.3896 4.8740 24.0483
v  4.2265 8.1773 1.1187
v  -3.0404 9.3485 -3.9916
v  -49.4468 0.0000 -10.7296
v  -31.6892 12.8519 -37.5255
v  -49.4468 8.5353 -6.7252
v  -49.4468 11.0749 -12.6001
v  -9.8465 6.4803 4.4520
v  -7.0500 7.6517 7.4646
v  -9.5835 6.3496 2.4633
v  -2.7228 4.9530 19.3568
v  -49.4468 0.0000 35.4444
v  14.2062 4.6442 -21.6095
v  13.9969 5.2999 -28.4107
v  6.9105 4.8791 9.1728
v  4.4083 4.9720 7.6043
v  -32.0244 5.7992 30.0615
v  -32.1059 7.6225 7.0441
v  -12.6027 11.9668 -8.8787
v  -6.8991 11.7705 -8.5699
v  -6.3908 7.7054 1.4160
v  34.8767 5.8796 -10.5509
v  -28.4837 12.7670 -20.0782
v  2.4489 4.8027 -35.9137
v  14.0466 4.1841 35.4615
v  20.4572 4.1061 32.3690
v  -11.8629 6.8172 7.8217
v  2.1847 5.2164 -16.3600
v  16.6444 5.1988 -28.8394
v  14.1423 5.8845 -32.9443
v  20.1358 5.8306 -36.2028
v  24.2150 5.1239 -1.5659
v  -13.2826 7.7962 -31.0262
v  -29.9709 7.9128 -2.7521
v  -26.3357 6.2469 22.0671
v  -10.5304 7.4921 -0.6427
v  -7.3270 8.3159 -1.4392
v  0.3767 5.7978 -18.8524
v  -47.3566 13.0522 -21.0781
v  -49.4468 12.7119 -17.8546
v  21.1608 4.1197 35.4715
v  -14.1815 6.7452 8.1640
v  44.3879 5.7322 -37.7592
v  37.9513 0.0057 -37.7765
v  47.7436 4.3231 23.9318
v  -23.0129 9.2089 4.5712
v  -37.9046 11.9636 -20.2027
v  -49.4468 6.4460 10.7908
v  -49.4468 6.6320 17.5188
v  -33.1578 11.8017 -20.2846
v  6.4886 4.8463 -3.5883
v  8.3842 4.9691 3.7712
v  -29.4920 14.4202 -24.0189
v  -20.8245 6.3860 16.0732
v  -1.9316 6.0058 -35.3713
v  19.6779 5.9498 -32.3696
v  -34.5599 12.5121 -22.8309
v  -20.7050 6.6863 27.4958
v  31.7383 4.0867 35.4635
v  -36.1492 8.8212 -5.7893
v  -39.2937 7.9280 -1.4320
v  -18.4700 6.1075 17.0250
v  -17.9385 6.2280 20.7488
v  -13.6042 5.8110 27.2494
v  3.7755 7.1976 -3.1755
v  -49.4468 0.0020 21.4999
v  -47.5360 10.7252 -3.3511
v  -18.6006 7.2987 8.2775
v  -12.2967 12.8439 -12.2417
v  3.5695 7.9409 -1.2573
v  -1.6107 8.9005 -4.8795
v  -41.2757 9.9001 -1.2398
v  -5.9670 8.6006 -16.3975
v  -4.0702 7.5595 4.3197
v  -36.2611 9.6108 -8.6209
v  -42.8345 12.6924 -13.2478
v  6.4578 5.1387 5.7355
v  3.8515 4.8366 35.4651
v  -49.4468 0.0000 -37.7815
v  -39.1400 0.0000 -37.7821
v  -39.4832 12.7370 -37.6235
v  -2.3494 8.5382 -9.7738
v  18.5078 5.3256 -4.6912
v  -40.2213 11.1217 -4.8783
v  0.0413 4.8740 31.7165
v  49.8506 0.0000 -12.5596
v  49.8506 0.0000 -15.3272
v  16.1911 5.2171 14.1137
v  -14.0821 8.9310 -4.0631
v  -34.5234 9.5337 -10.1104
v  -18.8214 13.8899 -18.4430
v  -44.8501 5.7616 29.2480
v  -23.3023 9.5689 -37.5266
v  -16.9594 8.1058 -1.2635
v  -49.4468 0.0083 -1.2645
v  44.4957 4.8740 -5.3883
v  34.9490 -0.5225 35.4677
v  31.1852 4.8568 14.4707
v  -17.1023 8.4457 -28.4321
v  -31.9326 8.7874 -12.8143
v  -26.0186 5.7098 35.4691
v  -34.5181 14.1308 -35.5647
v  -28.0572 6.9233 15.2511
v  -0.9115 6.2594 -11.8025
v  -49.4468 -0.0193 11.3363
v  -19.4696 0.0000 35.4667
v  49.8506 5.6938 -23.1615
v  -31.0773 9.6570 -15.6217
v  11.7582 -0.5225 35.4680
v  49.8506 0.0000 -37.7824
# 363 vertices

vn 0.0406 -0.0380 -0.9985
vn 0.0087 -0.0035 -1.0000
vn 0.1168 0.1404 -0.9832
vn -0.0293 0.0520 -0.9982
vn 0.0433 0.0614 -0.9972
vn 0.0199 0.0241 -0.9995
vn -0.4060 0.1520 -0.9012
vn -0.3368 0.1771 -0.9248
vn -0.2722 0.1011 -0.9569
vn 1.0000 0.0000 -0.0000
vn 1.0000 -0.0000 -0.0000
vn -0.0000 1.0000 0.0016
vn 0.0003 1.0000 0.0016
vn -0.0000 1.0000 0.0010
vn 1.0000 -0.0000 0.0000
vn -1.0000 0.0000 -0.0000
vn 0.0012 -1.0000 -0.0087
vn 0.0017 -1.0000 -0.0069
vn 0.0009 -0.9998 -0.0208
vn 0.0006 -1.0000 0.0063
vn 0.4082 0.2320 -0.8829
vn 0.3886 0.0565 -0.9197
vn 0.2949 0.0903 -0.9512
vn -0.0043 1.0000 -0.0033
vn -0.0013 1.0000 -0.0013
vn -0.0055 1.0000 -0.0048
vn 0.0531 -0.0308 -0.9981
vn 0.0500 0.0368 -0.9981
vn 0.0288 0.0169 -0.9994
vn 0.0511 0.1357 -0.9894
vn 0.0687 0.1094 -0.9916
vn 0.1579 0.1130 -0.9810
vn -0.0823 -0.0403 -0.9958
vn -0.0321 0.0022 -0.9995
vn -0.0406 -0.1348 -0.9900
vn 0.1123 0.2145 -0.9702
vn 0.0724 0.1317 -0.9886
vn 0.1373 0.1682 -0.9762
vn -0.1188 0.2498 -0.9610
vn -0.1891 0.3121 -0.9310
vn -0.3131 0.3480 -0.8837
vn -0.0077 0.0396 -0.9992
vn 0.0322 0.0733 -0.9968
vn 0.0144 0.0477 -0.9988
vn 0.3570 -0.0654 -0.9318
vn 0.3210 -0.2061 -0.9244
vn 0.2780 -0.2618 -0.9242
vn -0.0534 0.0276 -0.9982
vn 0.2852 0.0131 -0.9584
vn 0.2454 0.1005 -0.9642
vn 0.3981 0.4051 -0.8230
vn 0.0239 0.3539 -0.9350
vn 0.2680 0.4801 -0.8352
vn 0.0077 -0.0105 -0.9999
vn 0.1111 0.0063 -0.9938
vn -0.0203 0.0192 -0.9996
vn 0.1076 0.0679 -0.9919
vn 0.0377 -0.0351 -0.9987
vn 0.2265 -0.1178 -0.9669
vn 0.0883 -0.0395 -0.9953
vn -0.0883 0.0651 -0.9940
vn -0.0543 0.0194 -0.9983
vn -0.0457 0.0026 -0.9990
vn -0.0018 -1.0000 0.0042
vn -0.0012 -1.0000 0.0022
vn 0.0476 0.0749 -0.9961
vn 0.1667 0.0729 -0.9833
vn 0.1826 0.0180 -0.9830
vn -0.0313 -0.3099 -0.9503
vn -0.0248 -0.1527 -0.9880
vn -0.0002 1.0000 -0.0003
vn -0.2826 0.0318 -0.9587
vn -0.4073 0.0002 -0.9133
vn -0.0733 -0.0002 -0.9973
vn -0.0553 -0.0281 -0.9981
vn -0.0495 0.0075 -0.9987
vn 0.0621 0.1814 -0.9815
vn -0.1007 0.2084 -0.9729
vn 0.4821 -0.5080 -0.7138
vn 0.1711 -0.3945 -0.9028
vn 0.2368 -0.5935 -0.7692
vn 1.0000 0.0000 0.0000
vn -0.0308 0.1844 -0.9824
vn -0.1740 0.3254 -0.9294
vn -0.1372 -0.0110 -0.9905
vn -0.0818 0.0117 -0.9966
vn -0.0206 0.0606 -0.9979
vn 0.0461 0.0270 -0.9986
vn 0.0209 0.0129 -0.9997
vn -0.4240 0.1283 -0.8965
vn -0.2960 0.1124 -0.9485
vn 0.2229 0.2363 -0.9458
vn 0.0005 -1.0000 -0.0011
vn 0.0008 -0.9998 -0.0175
vn 0.0033 -0.9999 -0.0130
vn -0.0298 -0.0017 -0.9996
vn -0.0240 -0.0009 -0.9997
vn -0.0401 -0.0143 -0.9991
vn -0.0179 0.0294 -0.9994
vn -1.0000 -0.0000 -0.0000
vn 0.0347 0.0113 -0.9993
vn 0.1327 0.2079 -0.9691
vn -0.1073 0.0895 -0.9902
vn -0.0498 0.5023 -0.8633
vn -0.0434 0.5010 -0.8643
vn -0.0176 0.3363 -0.9416
vn 0.3867 -0.2963 -0.8733
vn 0.3845 -0.1882 -0.9037
vn 0.2298 0.0250 -0.9729
vn 0.1826 0.1633 -0.9695
vn 0.3232 0.1464 -0.9349
vn 0.3012 0.1306 -0.9446
vn 0.4308 0.1597 -0.8882
vn -0.0256 -0.0340 -0.9991
vn 0.0393 0.0497 -0.9980
vn -0.0036 0.1000 -0.9950
vn 0.0664 0.1322 -0.9890
vn 0.1207 0.1763 -0.9769
vn 0.0269 0.0797 -0.9965
vn 0.0579 0.1115 -0.9921
vn 0.0611 0.0135 -0.9980
vn -0.2399 0.1022 -0.9654
vn 0.0530 0.0422 -0.9977
vn 0.0367 0.0730 -0.9967
vn 0.0183 0.0204 -0.9996
vn -0.0598 -0.0116 -0.9981
vn -0.0029 -0.0119 -0.9999
vn 0.0147 0.0484 -0.9987
vn 0.1781 -0.0968 -0.9792
vn 0.5336 -0.2178 -0.8172
vn 0.2496 -0.4773 -0.8426
vn 0.1687 0.0814 -0.9823
vn 0.0911 0.0788 -0.9927
vn -0.3614 0.0237 -0.9321
vn 0.1972 -0.2067 -0.9583
vn 0.0388 -0.2817 -0.9587
vn 0.0611 0.2209 -0.9734
vn 0.0577 0.0869 -0.9945
vn 0.5675 -0.4175 -0.7097
vn 0.4035 -0.0399 -0.9141
vn 0.0030 0.0513 -0.9987
vn -0.0431 0.0074 -0.9990
vn -0.2890 0.2260 -0.9303
vn -0.1375 0.1523 -0.9787
vn -0.2877 0.1595 -0.9443
vn -0.0739 0.1376 -0.9877
vn -0.0129 0.0235 -0.9996
vn -0.0507 0.2065 -0.9771
vn 0.3124 -0.3538 -0.8816
vn 0.5287 0.1501 -0.8354
vn 0.4636 0.2071 -0.8615
vn -0.0007 1.0000 -0.0011
vn -0.0000 1.0000 -0.0012
vn 0.0870 0.1265 -0.9881
vn -0.0145 0.1628 -0.9865
vn 0.0532 0.2880 -0.9562
vn 0.0005 1.0000 0.0013
vn 0.0193 0.0452 -0.9988
vn -0.0216 -0.0201 -0.9996
vn -0.0052 0.0061 -1.0000
vn 0.0107 0.0426 -0.9990
vn 0.0629 0.0248 -0.9977
vn -0.0102 -0.0115 -0.9999
vn 0.0482 0.0602 -0.9970
vn -0.0191 0.0028 -0.9998
vn -0.0234 -0.0253 -0.9994
vn -0.2096 0.1214 -0.9702
vn -0.6001 0.1193 -0.7910
vn -0.6668 0.1110 -0.7369
vn -0.4455 0.1436 -0.8837
vn -0.4213 0.0816 -0.9032
vn -0.2831 0.1383 -0.9491
vn 0.1002 -0.0234 -0.9947
vn -0.0058 -0.0544 -0.9985
vn 0.2031 -0.0211 -0.9789
vn 0.2923 -0.0869 -0.9524
vn 0.3429 -0.1312 -0.9302
vn -0.0230 -0.0028 -0.9997
vn -0.0086 0.0622 -0.9980
vn 0.0070 0.0726 -0.9973
vn 0.0607 -0.0238 -0.9979
vn -1.0000 0.0000 0.0000
vn 0.0911 0.0546 -0.9943
vn -0.7317 0.0558 -0.6794
vn -0.0770 0.1936 -0.9781
vn 0.1186 0.2557 -0.9594
vn 0.0633 0.1403 -0.9881
vn 0.2258 0.3039 -0.9256
vn -0.0583 0.0264 -0.9979
vn 0.0267 0.0290 -0.9992
vn -0.0215 -0.0469 -0.9987
vn -0.0982 0.0059 -0.9952
vn 0.0073 -0.0232 -0.9997
vn -0.0835 0.0047 -0.9965
vn 0.0134 0.0630 -0.9979
vn -0.0201 0.0478 -0.9987
vn -0.0030 0.0112 -0.9999
vn 0.0054 0.0652 -0.9979
vn 0.0988 0.3182 -0.9429
vn 0.2940 0.1552 -0.9431
vn 0.2752 0.0341 -0.9608
vn 0.1081 -0.5389 -0.8354
vn 0.0742 -0.3873 -0.9189
vn -0.0040 -0.0051 -1.0000
vn -0.0007 1.0000 -0.0088
vn -0.0032 0.9999 -0.0097
vn -0.0000 0.9999 -0.0116
vn -0.1247 0.1091 -0.9862
vn -0.1913 0.0994 -0.9765
vn -0.0225 0.4300 -0.9025
vn 0.3901 -0.3970 -0.8308
vn 0.0557 0.0653 -0.9963
vn -0.0472 0.1569 -0.9865
vn -0.1948 0.0725 -0.9782
vn 0.4202 -0.2547 -0.8709
vn 0.2630 -0.0461 -0.9637
vn 0.2160 0.4198 -0.8816
vn 0.0906 -0.0014 -0.9959
vn 0.2913 0.1333 -0.9473
vn -0.0681 0.0049 -0.9977
vn 0.0707 0.0303 -0.9970
vn -0.0169 0.0162 -0.9997
vn 0.0296 0.0129 -0.9995
vn -0.2436 0.1703 -0.9548
vn -0.0021 0.0799 -0.9968
vn -0.0891 0.1535 -0.9841
vn -0.0184 -0.4613 -0.8871
vn 0.0388 -0.0627 -0.9973
vn -0.0243 0.0150 -0.9996
vn -0.1381 0.1576 -0.9778
vn 0.0559 0.0134 -0.9983
vn 0.0329 0.0289 -0.9990
vn 0.0335 0.0346 -0.9988
vn 0.0132 -0.0396 -0.9991
vn -0.0180 -0.0547 -0.9983
vn -0.0192 0.0829 -0.9964
vn 0.0656 0.0091 -0.9978
vn -0.6193 0.0577 -0.7831
vn 0.0228 -0.9954 -0.0936
vn 0.0007 -0.9914 -0.1308
vn 0.1353 -0.1472 -0.9798
vn 0.4039 -0.3501 -0.8451
vn 0.5020 -0.3687 -0.7823
vn 0.0100 0.0416 -0.9991
vn 0.0387 0.0588 -0.9975
vn 0.3909 -0.0587 -0.9185
vn 0.1645 0.1347 -0.9771
vn 0.0194 -0.9958 -0.0894
vn -0.1513 -0.1394 -0.9786
vn -0.0534 0.0753 -0.9957
vn -0.2619 0.1158 -0.9581
vn 0.0618 -0.0097 -0.9980
vn -0.0091 1.0000 -0.0031
vn -0.0044 0.0283 -0.9996
vn 0.1804 0.0956 -0.9789
vn -0.0145 0.0555 -0.9984
vn 0.1665 0.1527 -0.9741
vn 0.0256 0.0723 -0.9971
vn 0.0118 0.0171 -0.9998
vn -0.1590 -0.0423 -0.9864
vn 0.1197 0.3842 -0.9155
vn 0.0836 0.3472 -0.9341
vn -0.2399 0.1535 -0.9586
vn 0.0068 0.0015 -1.0000
vn 0.0436 0.0319 -0.9985
vn -0.3247 0.4711 -0.8201
vn -0.0835 -0.3790 -0.9216
vn 0.0357 -0.0649 -0.9973
vn 0.0515 0.0562 -0.9971
vn 0.0071 -0.0009 -1.0000
vn -0.0341 -0.0097 -0.9994
vn 0.1014 0.0943 -0.9904
vn -0.0106 0.1029 -0.9946
vn 0.0320 0.1169 -0.9926
vn -0.0006 -0.3002 -0.9539
vn -0.0361 -0.0160 -0.9992
vn 0.2323 -0.0860 -0.9688
vn -0.1746 0.1337 -0.9755
vn -0.0494 0.0149 -0.9987
vn -0.0868 0.3968 -0.9138
vn -0.1144 0.3608 -0.9256
vn 0.1139 0.1015 -0.9883
vn -0.2254 0.1793 -0.9576
vn 0.2534 0.2626 -0.9310
vn 0.0051 -0.0056 -1.0000
vn 0.0339 0.1235 -0.9918
vn 0.0464 0.0832 -0.9955
vn -0.0004 -1.0000 -0.0025
vn 0.0001 -1.0000 -0.0006
vn -0.0012 -1.0000 0.0019
vn -0.0153 -0.0093 -0.9998
vn 0.0329 0.0106 -0.9994
vn 0.2238 0.1047 -0.9690
vn 0.1017 0.3401 -0.9349
vn -0.1382 0.4571 -0.8786
vn 0.2451 -0.1767 -0.9533
vn 0.1895 0.1235 -0.9741
vn -0.1797 0.1020 -0.9784
vn 0.0783 0.0898 -0.9929
vn 0.0704 -0.1440 -0.9871
vn -0.0086 0.1411 -0.9900
vn -0.1414 0.1946 -0.9706
vn 0.0439 0.0064 -0.9990
vn -0.0045 0.0606 -0.9981
vn 0.3817 0.2511 -0.8895
vn 0.4769 0.3273 -0.8157
vn 0.0435 0.0424 -0.9982
vn 0.0563 -0.0209 -0.9982
vn 0.0767 0.0468 -0.9960
vn 0.5212 -0.2956 -0.8006
vn -1.0000 -0.0000 0.0000
vn -0.3069 0.0060 -0.9517
vn 0.1689 0.1977 -0.9656
vn 0.1255 0.0401 -0.9913
vn -0.0012 0.0026 -1.0000
vn -0.6291 0.1553 -0.7617
vn 0.4478 -0.2504 -0.8584
vn -0.0199 0.0565 -0.9982
vn 0.3955 -0.0805 -0.9149
vn 0.5431 0.2667 -0.7962
vn 0.5300 -0.4074 -0.7437
vn 0.0215 0.0101 -0.9997
vn -0.1794 0.1039 -0.9783
vn -0.0370 -0.5402 -0.8407
vn 0.2596 0.2512 -0.9325
vn 0.2454 0.1032 -0.9639
vn 0.0915 0.0763 -0.9929
vn -0.0010 1.0000 -0.0014
vn 0.0002 1.0000 0.0013
vn 0.0381 0.0373 -0.9986
vn -0.0000 -1.0000 -0.0008
vn -0.0039 -0.9999 -0.0109
vn 0.0280 -0.5930 -0.8047
vn 0.6461 -0.2900 -0.7060
vn 0.0229 -0.0177 -0.9996
vn 0.4240 0.1796 -0.8877
vn 0.0531 0.0308 -0.9981
vn -0.0537 0.0279 -0.9982
vn 0.1841 0.5253 -0.8307
vn 0.3018 0.0640 -0.9512
vn 0.2909 -0.1977 -0.9361
vn 0.0444 0.0819 -0.9956
vn 0.3147 -0.2860 -0.9051
vn 0.2934 0.4995 -0.8151
vn 0.0294 0.0364 -0.9989
vn -0.0004 1.0000 -0.0018
vn -0.0020 1.0000 0.0007
vn 0.0226 0.0589 -0.9980
vn 0.0633 -0.9788 -0.1946
vn 0.0306 -0.9888 -0.1463
vn 0.4687 -0.1987 -0.8607
vn -0.0007 0.0943 -0.9955
vn 0.1022 -0.1764 -0.9790
vn -0.0116 0.3112 -0.9503
vn -0.2631 0.2169 -0.9401
vn 0.0079 0.0178 -0.9998
vn 0.0379 0.1312 -0.9906
vn -0.0662 0.1779 -0.9818
vn 0.5211 -0.2821 -0.8055
vn 0.2274 -0.6841 -0.6931
vn -0.0000 1.0000 0.0005
vn 0.0005 1.0000 -0.0003
vn 0.0010 1.0000 0.0004
vn 0.0187 0.0576 -0.9982
vn 0.0001 1.0000 -0.0018
vn 0.0307 -0.9890 -0.1447
vn -0.1343 0.0052 -0.9909
vn -0.0974 0.0243 -0.9950
vn -0.2598 0.3672 -0.8931
vn -0.0008 1.0000 -0.0010
vn -0.0001 -1.0000 -0.0014
vn -0.0171 -0.9983 -0.0557
vn 0.0119 -0.9725 -0.2326
vn -0.0016 -1.0000 -0.0025
vn -0.0041 -1.0000 -0.0001
vn -0.4504 0.0831 -0.8890
vn -0.2039 0.0242 -0.9787
# 377 vertex normals

vt 0.6066 0.9481 0.0000
vt 0.5544 0.8739 0.0000
vt 0.5657 0.7869 0.0000
vt 0.9516 0.2883 0.0000
vt 0.8702 0.3305 0.0000
vt 0.9105 0.2105 0.0000
vt 0.2666 0.6333 0.0000
vt 0.2331 0.6273 0.0000
vt 0.2446 0.5394 0.0000
vt 0.9907 0.4532 0.0000
vt 0.9907 0.3753 0.0000
vt 0.9918 0.3668 0.0000
vt 0.9859 0.5135 0.0000
vt 0.9850 0.5504 0.0000
vt 0.9850 0.4683 0.0000
vt 0.9906 0.5353 0.0000
vt 0.9916 0.4785 0.0000
vt 0.9915 0.6003 0.0000
vt 0.9946 0.5176 0.0000
vt 0.9919 0.6034 0.0000
vt 0.9943 0.4480 0.0000
vt 0.9895 0.4287 0.0000
vt 0.9905 0.4339 0.0000
vt 0.9891 0.5273 0.0000
vt 0.9905 0.5378 0.0000
vt 0.0947 0.7472 0.0000
vt 0.0721 0.6871 0.0000
vt 0.1489 0.6871 0.0000
vt 0.9850 0.8274 0.0000
vt 0.9860 0.7917 0.0000
vt 0.9861 0.8456 0.0000
vt 0.4690 0.1672 0.0000
vt 0.4365 0.1369 0.0000
vt 0.5134 0.1053 0.0000
vt 0.4079 0.3383 0.0000
vt 0.3951 0.2309 0.0000
vt 0.4421 0.2462 0.0000
vt 0.6015 0.6375 0.0000
vt 0.5574 0.6226 0.0000
vt 0.6274 0.5333 0.0000
vt 0.2349 0.3313 0.0000
vt 0.2376 0.2450 0.0000
vt 0.2865 0.3050 0.0000
vt 0.2828 0.7278 0.0000
vt 0.2131 0.7822 0.0000
vt 0.2579 0.6762 0.0000
vt 0.7474 0.1586 0.0000
vt 0.6947 0.2234 0.0000
vt 0.6720 0.0757 0.0000
vt 0.2855 0.9228 0.0000
vt 0.2215 0.9197 0.0000
vt 0.1993 0.8469 0.0000
vt 0.1498 0.9008 0.0000
vt 0.0814 0.9411 0.0000
vt 0.1188 0.8167 0.0000
vt 0.5352 0.4487 0.0000
vt 0.4773 0.4303 0.0000
vt 0.5042 0.3986 0.0000
vt 0.6052 0.5112 0.0000
vt 0.5710 0.4751 0.0000
vt 0.6104 0.4170 0.0000
vt 0.4857 0.4661 0.0000
vt 0.4675 0.8591 0.0000
vt 0.3886 0.9066 0.0000
vt 0.4137 0.7798 0.0000
vt 0.1709 0.2239 0.0000
vt 0.1233 0.2452 0.0000
vt 0.1822 0.1604 0.0000
vt 0.9895 0.3477 0.0000
vt 0.9905 0.3502 0.0000
vt 0.3746 0.4479 0.0000
vt 0.3551 0.4529 0.0000
vt 0.3239 0.3931 0.0000
vt 0.6043 0.9840 0.0000
vt 0.5331 0.9229 0.0000
vt 0.9850 0.7880 0.0000
vt 0.1831 0.4450 0.0000
vt 0.2221 0.4359 0.0000
vt 0.7816 0.8721 0.0000
vt 0.7284 0.7594 0.0000
vt 0.7590 0.6171 0.0000
vt 0.3363 0.6338 0.0000
vt 0.3113 0.6242 0.0000
vt 0.3484 0.7176 0.0000
vt 0.3830 0.6748 0.0000
vt 0.3880 0.7096 0.0000
vt 0.9907 0.1724 0.0000
vt 0.9918 0.1544 0.0000
vt 0.9918 0.2169 0.0000
vt 0.2630 0.5076 0.0000
vt 0.2924 0.5417 0.0000
vt 0.2476 0.0648 0.0000
vt 0.2093 0.0724 0.0000
vt 0.1693 0.0046 0.0000
vt 0.8704 0.1734 0.0000
vt 0.7786 0.1144 0.0000
vt 0.2204 0.4131 0.0000
vt 0.2140 0.3493 0.0000
vt 0.0638 0.7291 0.0000
vt 0.9907 0.4817 0.0000
vt 0.9905 0.6578 0.0000
vt 0.9867 0.7927 0.0000
vt 0.9883 0.6616 0.0000
vt 0.2567 0.1790 0.0000
vt 0.5514 0.3145 0.0000
vt 0.5565 0.2289 0.0000
vt 0.6067 0.2162 0.0000
vt 0.9945 0.6640 0.0000
vt 0.5284 0.2440 0.0000
vt 0.2472 0.4132 0.0000
vt 0.2376 0.4240 0.0000
vt 0.3982 0.5838 0.0000
vt 0.3738 0.5675 0.0000
vt 0.4455 0.5344 0.0000
vt 0.4235 0.7394 0.0000
vt 0.4966 0.6538 0.0000
vt 0.4944 0.6871 0.0000
vt 0.4776 0.3424 0.0000
vt 0.0817 0.2363 0.0000
vt 0.0930 0.3185 0.0000
vt 0.0622 0.3459 0.0000
vt 0.6288 0.6973 0.0000
vt 0.5945 0.7254 0.0000
vt 0.1606 0.3599 0.0000
vt 0.1489 0.3638 0.0000
vt 0.1120 0.2695 0.0000
vt 0.5226 0.8106 0.0000
vt 0.5607 0.7274 0.0000
vt 0.5318 0.6278 0.0000
vt 0.2225 0.3370 0.0000
vt 0.7995 0.4344 0.0000
vt 0.7194 0.3065 0.0000
vt 0.7962 0.3432 0.0000
vt 0.6610 0.3697 0.0000
vt 0.7056 0.3737 0.0000
vt 0.6440 0.4579 0.0000
vt 0.3927 0.7822 0.0000
vt 0.3351 0.7785 0.0000
vt 0.3929 0.7555 0.0000
vt 0.0775 0.8316 0.0000
vt 0.4902 0.2965 0.0000
vt 0.0159 0.9144 0.0000
vt 0.0521 0.9255 0.0000
vt 0.0027 0.9924 0.0000
vt 0.0365 0.3332 0.0000
vt 0.0390 0.1433 0.0000
vt 0.4109 0.6503 0.0000
vt 0.4108 0.6151 0.0000
vt 0.6989 0.8588 0.0000
vt 0.6715 0.7785 0.0000
vt 0.2887 0.6339 0.0000
vt 0.0027 0.1613 0.0000
vt 0.0152 0.2436 0.0000
vt 0.1376 0.4977 0.0000
vt 0.1436 0.4079 0.0000
vt 0.1609 0.5591 0.0000
vt 0.2800 0.7503 0.0000
vt 0.0756 0.4104 0.0000
vt 0.0574 0.4124 0.0000
vt 0.9860 0.7270 0.0000
vt 0.9850 0.6837 0.0000
vt 0.2970 0.0483 0.0000
vt 0.2462 0.0282 0.0000
vt 0.2987 0.0046 0.0000
vt 0.9931 0.2073 0.0000
vt 0.9919 0.1781 0.0000
vt 0.9931 0.1545 0.0000
vt 0.9859 0.5707 0.0000
vt 0.8306 0.5021 0.0000
vt 0.7348 0.4863 0.0000
vt 0.5688 0.1899 0.0000
vt 0.7458 0.8865 0.0000
vt 0.6998 0.9414 0.0000
vt 0.7985 0.9960 0.0000
vt 0.7364 0.9755 0.0000
vt 0.7950 0.9452 0.0000
vt 0.8230 0.7013 0.0000
vt 0.0302 0.4097 0.0000
vt 0.0180 0.4195 0.0000
vt 0.0027 0.3796 0.0000
vt 0.0249 0.5686 0.0000
vt 0.0395 0.5498 0.0000
vt 0.0526 0.6455 0.0000
vt 0.3979 0.9497 0.0000
vt 0.4588 0.9194 0.0000
vt 0.3809 0.9781 0.0000
vt 0.2886 0.9676 0.0000
vt 0.2135 0.9776 0.0000
vt 0.1196 0.0950 0.0000
vt 0.0886 0.0820 0.0000
vt 0.0785 0.0046 0.0000
vt 0.0819 0.1264 0.0000
vt 0.9919 0.3745 0.0000
vt 0.9938 0.3909 0.0000
vt 0.1639 0.4179 0.0000
vt 0.0027 0.9226 0.0000
vt 0.0039 0.7806 0.0000
vt 0.4403 0.3793 0.0000
vt 0.0437 0.4027 0.0000
vt 0.2781 0.4881 0.0000
vt 0.6088 0.3558 0.0000
vt 0.8414 0.3628 0.0000
vt 0.6811 0.6488 0.0000
vt 0.7311 0.6901 0.0000
vt 0.6856 0.5984 0.0000
vt 0.7321 0.5580 0.0000
vt 0.9738 0.3657 0.0000
vt 0.9248 0.0629 0.0000
vt 0.8624 0.0917 0.0000
vt 0.8011 0.0580 0.0000
vt 0.3431 0.4950 0.0000
vt 0.3006 0.4751 0.0000
vt 0.3099 0.4378 0.0000
vt 0.1510 0.9833 0.0000
vt 0.0999 0.9845 0.0000
vt 0.0996 0.9730 0.0000
vt 0.9848 0.1544 0.0000
vt 0.9857 0.1544 0.0000
vt 0.9857 0.1736 0.0000
vt 0.1534 0.2628 0.0000
vt 0.1813 0.3485 0.0000
vt 0.9931 0.3366 0.0000
vt 0.1601 0.7241 0.0000
vt 0.3618 0.6755 0.0000
vt 0.1186 0.4224 0.0000
vt 0.1776 0.5785 0.0000
vt 0.2155 0.6273 0.0000
vt 0.2678 0.8508 0.0000
vt 0.3262 0.9118 0.0000
vt 0.3111 0.5629 0.0000
vt 0.3916 0.9946 0.0000
vt 0.3380 0.9930 0.0000
vt 0.6186 0.3172 0.0000
vt 0.5393 0.3457 0.0000
vt 0.9738 0.4186 0.0000
vt 0.9090 0.3967 0.0000
vt 0.0440 0.7112 0.0000
vt 0.1361 0.0364 0.0000
vt 0.0581 0.5534 0.0000
vt 0.2889 0.8447 0.0000
vt 0.5421 0.5928 0.0000
vt 0.7096 0.7177 0.0000
vt 0.0347 0.8821 0.0000
vt 0.8827 0.4758 0.0000
vt 0.5287 0.0250 0.0000
vt 0.5793 0.1024 0.0000
vt 0.4923 0.8841 0.0000
vt 0.6073 0.2902 0.0000
vt 0.3435 0.2812 0.0000
vt 0.4092 0.1900 0.0000
vt 0.0049 0.5059 0.0000
vt 0.9952 0.6066 0.0000
vt 0.9962 0.6623 0.0000
vt 0.9882 0.5688 0.0000
vt 0.9888 0.5238 0.0000
vt 0.1849 0.8947 0.0000
vt 0.3008 0.8355 0.0000
vt 0.3116 0.7598 0.0000
vt 0.6524 0.2565 0.0000
vt 0.6281 0.1589 0.0000
vt 0.5276 0.4695 0.0000
vt 0.4566 0.5387 0.0000
vt 0.9919 0.4758 0.0000
vt 0.9874 0.7220 0.0000
vt 0.9946 0.4479 0.0000
vt 0.9949 0.4888 0.0000
vt 0.3900 0.4244 0.0000
vt 0.4174 0.3836 0.0000
vt 0.3926 0.4513 0.0000
vt 0.4597 0.2227 0.0000
vt 0.9850 0.8456 0.0000
vt 0.6252 0.7771 0.0000
vt 0.6232 0.8692 0.0000
vt 0.5539 0.3605 0.0000
vt 0.5294 0.3817 0.0000
vt 0.9919 0.1544 0.0000
vt 0.1731 0.0778 0.0000
vt 0.9467 0.0061 0.0000
vt 0.1745 0.3929 0.0000
vt 0.3630 0.6048 0.0000
vt 0.4077 0.5926 0.0000
vt 0.4238 0.4655 0.0000
vt 0.9738 0.9960 0.0000
vt 0.8274 0.6274 0.0000
vt 0.2077 0.7564 0.0000
vt 0.5885 0.9954 0.0000
vt 0.5102 0.9707 0.0000
vt 0.6235 0.0033 0.0000
vt 0.6861 0.0397 0.0000
vt 0.3703 0.3788 0.0000
vt 0.5077 0.7061 0.0000
vt 0.6491 0.8750 0.0000
vt 0.6246 0.9305 0.0000
vt 0.6832 0.9746 0.0000
vt 0.7231 0.5058 0.0000
vt 0.3564 0.9046 0.0000
vt 0.1932 0.5219 0.0000
vt 0.2288 0.1860 0.0000
vt 0.3833 0.4933 0.0000
vt 0.4146 0.5041 0.0000
vt 0.4900 0.7398 0.0000
vt 0.0240 0.7688 0.0000
vt 0.0049 0.7208 0.0000
vt 0.6938 0.0047 0.0000
vt 0.3476 0.3742 0.0000
vt 0.3889 0.0047 0.0000
vt 0.9894 0.1924 0.0000
vt 0.9905 0.2372 0.0000
vt 0.9893 0.2792 0.0000
vt 0.9532 0.1612 0.0000
vt 0.9738 0.1296 0.0000
vt 0.2612 0.4228 0.0000
vt 0.1156 0.7581 0.0000
vt 0.9939 0.3471 0.0000
vt 0.9936 0.3260 0.0000
vt 0.9936 0.2792 0.0000
vt 0.1620 0.7592 0.0000
vt 0.5497 0.5332 0.0000
vt 0.5683 0.4336 0.0000
vt 0.1979 0.8097 0.0000
vt 0.2826 0.2671 0.0000
vt 0.4674 0.9634 0.0000
vt 0.6787 0.9227 0.0000
vt 0.9944 0.4121 0.0000
vt 0.1483 0.7936 0.0000
vt 0.2838 0.1125 0.0000
vt 0.7584 0.0055 0.0000
vt 0.1341 0.5618 0.0000
vt 0.1020 0.5040 0.0000
vt 0.9906 0.6646 0.0000
vt 0.3057 0.2542 0.0000
vt 0.3109 0.2038 0.0000
vt 0.3533 0.1158 0.0000
vt 0.5227 0.5272 0.0000
vt 0.9919 0.2515 0.0000
vt 0.9932 0.2348 0.0000
vt 0.0214 0.5300 0.0000
vt 0.3044 0.3726 0.0000
vt 0.3661 0.6504 0.0000
vt 0.9953 0.5554 0.0000
vt 0.9957 0.6264 0.0000
vt 0.9204 0.9957 0.0000
vt 0.0049 0.5643 0.0000
vt 0.5212 0.5017 0.0000
vt 0.0027 0.0052 0.0000
vt 0.4705 0.5507 0.0000
vt 0.0827 0.5014 0.0000
vt 0.4191 0.7008 0.0000
vt 0.9738 0.8745 0.0000
vt 0.4465 0.4262 0.0000
vt 0.7022 0.9958 0.0000
vt 0.1317 0.6013 0.0000
vt 0.0674 0.6639 0.0000
vt 0.5494 0.4070 0.0000
vt 0.9858 0.4036 0.0000
vt 0.9859 0.4746 0.0000
vt 0.5240 0.0047 0.0000
vt 0.9919 0.6641 0.0000
vt 0.9905 0.7739 0.0000
vt 0.9879 0.8456 0.0000
vt 0.9916 0.4514 0.0000
vt 0.1002 0.9938 0.0000
vt 0.4583 0.6134 0.0000
vt 0.6673 0.5481 0.0000
vt 0.0930 0.5507 0.0000
vt 0.4867 0.0554 0.0000
vt 0.9907 0.3300 0.0000
vt 0.9907 0.3107 0.0000
vt 0.6447 0.2936 0.0000
vt 0.3486 0.5396 0.0000
vt 0.1487 0.6215 0.0000
vt 0.3023 0.7343 0.0000
vt 0.0477 0.0888 0.0000
vt 0.2584 0.9925 0.0000
vt 0.3204 0.5017 0.0000
vt 0.9919 0.4099 0.0000
vt 0.9214 0.5576 0.0000
vt 0.9858 0.2805 0.0000
vt 0.9848 0.2581 0.0000
vt 0.9950 0.5254 0.0000
vt 0.7893 0.2888 0.0000
vt 0.9879 0.6636 0.0000
vt 0.9880 0.6069 0.0000
vt 0.3190 0.8695 0.0000
vt 0.1740 0.6581 0.0000
vt 0.4548 0.9924 0.0000
vt 0.2319 0.0046 0.0000
vt 0.0049 0.6484 0.0000
vt 0.9738 0.0055 0.0000
vt 0.1487 0.9660 0.0000
vt 0.2119 0.2782 0.0000
vt 0.4774 0.6444 0.0000
vt 0.1764 0.9925 0.0000
vt 0.9858 0.3541 0.0000
vt 0.9919 0.3222 0.0000
vt 0.9860 0.6349 0.0000
vt 0.9850 0.6369 0.0000
vt 0.4693 0.0047 0.0000
vt 0.9914 0.6643 0.0000
vt 0.9861 0.6825 0.0000
vt 0.9738 0.7981 0.0000
vt 0.9738 0.5830 0.0000
vt 0.1824 0.6961 0.0000
vt 0.9848 0.4196 0.0000
vt 0.9918 0.2562 0.0000
vt 0.9905 0.8456 0.0000
vt 0.9863 0.8456 0.0000
vt 0.9866 0.7763 0.0000
vt 0.9907 0.1544 0.0000
vt 0.9905 0.1544 0.0000
vt 0.9894 0.1544 0.0000
vt 0.0027 0.2475 0.0000
vt 0.0027 0.1078 0.0000
# 413 texture coords

o Box001
g Box001
usemtl sand_table_ma
s off
f 1/1/1 2/2/2 3/3/3 
f 4/4/4 5/5/5 6/6/6 
f 7/7/7 8/8/8 9/9/9 
f 10/10/10 11/11/11 12/12/10 
f 13/13/12 14/14/13 15/15/14 
f 16/16/15 17/17/10 18/18/15 
f 19/19/16 20/20/16 21/21/16 
f 22/22/17 23/23/18 24/24/19 
f 24/24/19 23/23/18 25/25/20 
f 26/26/21 27/27/22 28/28/23 
f 29/29/24 30/30/25 31/31/26 
f 32/32/27 33/33/28 34/34/29 
f 35/35/30 36/36/31 37/37/32 
f 38/38/33 39/39/34 40/40/35 
f 41/41/36 42/42/37 43/43/38 
f 44/44/39 45/45/40 46/46/41 
f 47/47/42 48/48/43 49/49/44 
f 50/50/45 51/51/46 52/52/47 
f 53/53/48 54/54/49 55/55/50 
f 56/56/51 57/57/52 58/58/53 
f 59/59/54 60/60/55 61/61/56 
f 57/57/52 56/56/51 62/62/57 
f 63/63/58 64/64/59 65/65/60 
f 66/66/61 67/67/62 68/68/63 
f 69/69/64 70/70/65 22/22/17 
f 22/22/17 70/70/65 23/23/18 
f 71/71/66 72/72/67 73/73/68 
f 74/74/69 75/75/70 1/1/1 
f 30/30/25 29/29/24 76/76/71 
f 9/9/9 77/77/72 78/78/73 
f 79/79/74 80/80/75 81/81/76 
f 82/82/77 44/44/39 83/83/78 
f 84/84/79 85/85/80 86/86/81 
f 87/87/15 88/88/82 89/89/82 
f 83/83/78 90/90/83 91/91/84 
f 92/92/85 93/93/86 94/94/87 
f 95/95/88 5/5/5 96/96/89 
f 97/97/90 77/77/72 98/98/91 
f 99/99/92 26/26/21 55/55/50 
f 100/100/10 10/10/10 17/17/10 
f 101/101/93 102/102/94 103/103/95 
f 104/104/96 93/93/86 92/92/85 
f 105/105/97 106/106/98 107/107/99 
f 19/19/16 108/108/100 20/20/16 
f 105/105/97 109/109/101 106/106/98 
f 110/110/102 111/111/103 41/41/36 
f 112/112/104 113/113/105 114/114/106 
f 115/115/107 116/116/108 117/117/109 
f 35/35/30 37/37/32 118/118/110 
f 119/119/111 120/120/112 121/121/113 
f 39/39/34 122/122/114 123/123/115 
f 124/124/116 125/125/117 126/126/118 
f 3/3/3 127/127/119 128/128/120 
f 117/117/109 116/116/108 129/129/121 
f 111/111/103 130/130/122 41/41/36 
f 131/131/123 132/132/124 133/133/125 
f 134/134/126 135/135/127 136/136/128 
f 137/137/129 138/138/130 139/139/131 
f 140/140/132 55/55/50 54/54/49 
f 118/118/110 37/37/32 141/141/133 
f 142/142/134 143/143/135 144/144/136 
f 119/119/111 145/145/137 146/146/138 
f 147/147/139 85/85/80 148/148/140 
f 149/149/141 150/150/142 80/80/75 
f 9/9/9 90/90/83 151/151/143 
f 152/152/144 146/146/138 153/153/145 
f 154/154/146 155/155/147 156/156/148 
f 157/157/149 45/45/40 44/44/39 
f 7/7/7 9/9/9 151/151/143 
f 158/158/150 159/159/151 121/121/113 
f 94/160/152 76/76/71 160/161/153 
f 161/162/154 162/163/155 163/164/156 
f 164/165/16 165/166/16 31/167/16 
f 166/168/157 14/14/13 13/13/12 
f 167/169/158 168/170/159 135/135/127 
f 106/106/98 169/171/160 107/107/99 
f 170/172/161 171/173/162 149/149/141 
f 172/174/163 173/175/164 174/176/165 
f 174/176/165 173/175/164 170/172/161 
f 175/177/166 79/79/74 81/81/76 
f 176/178/167 177/179/168 153/153/145 
f 177/179/168 178/180/169 153/153/145 
f 179/181/170 180/182/171 181/183/172 
f 182/184/173 183/185/174 184/186/175 
f 185/187/176 186/188/177 51/51/46 
f 187/189/178 188/190/179 30/191/180 
f 189/192/181 187/189/178 67/67/62 
f 190/193/100 191/194/182 21/21/16 
f 65/65/60 137/137/129 139/139/131 
f 192/195/183 156/156/148 155/155/147 
f 193/196/184 194/197/185 142/142/134 
f 118/118/110 195/198/186 35/35/30 
f 159/159/151 196/199/187 145/145/137 
f 91/91/84 90/90/83 197/200/188 
f 61/61/56 198/201/189 134/134/126 
f 133/133/125 199/202/190 131/131/123 
f 200/203/191 122/122/114 38/38/33 
f 201/204/192 202/205/193 203/206/194 
f 17/207/195 5/5/5 4/4/4 
f 204/208/196 95/95/88 205/209/197 
f 95/95/88 96/96/89 206/210/198 
f 207/211/199 208/212/200 209/213/201 
f 210/214/202 211/215/203 212/216/204 
f 213/217/205 214/218/206 215/219/207 
f 124/124/116 216/220/208 217/221/209 
f 218/222/100 191/194/182 190/193/100 
f 219/223/210 26/26/21 28/28/23 
f 84/84/79 220/224/211 85/85/80 
f 221/225/212 158/158/150 120/120/112 
f 222/226/213 8/8/8 223/227/214 
f 111/111/103 97/97/90 130/130/122 
f 224/228/215 225/229/216 50/50/45 
f 83/83/78 91/91/84 226/230/217 
f 98/98/91 217/221/209 130/130/122 
f 227/231/218 228/232/219 184/186/175 
f 229/233/220 230/234/221 105/105/97 
f 231/235/222 232/236/223 17/207/195 
f 232/236/223 5/5/5 17/207/195 
f 140/140/132 233/237/224 99/99/92 
f 187/189/178 30/191/180 234/238/225 
f 180/182/171 235/239/226 181/183/172 
f 236/240/227 224/228/215 157/157/149 
f 40/40/35 237/241/228 59/59/54 
f 139/139/131 84/84/79 86/86/81 
f 80/80/75 150/150/142 238/242/229 
f 239/243/230 143/143/135 142/142/134 
f 131/131/123 199/202/190 240/244/231 
f 240/244/231 199/202/190 232/236/223 
f 167/169/158 135/135/127 131/131/123 
f 169/171/160 241/245/232 242/246/233 
f 240/244/231 167/169/158 131/131/123 
f 243/247/234 63/63/58 127/127/119 
f 67/67/62 146/146/138 189/192/181 
f 229/233/220 105/105/97 244/248/235 
f 36/36/31 245/249/236 246/250/237 
f 177/179/168 247/251/238 178/180/169 
f 248/252/182 144/253/100 108/108/100 
f 227/254/239 249/255/240 24/24/19 
f 53/53/48 250/256/241 212/216/204 
f 251/257/242 252/258/243 138/138/130 
f 253/259/244 107/107/99 254/260/245 
f 255/261/246 256/262/247 62/62/57 
f 21/21/16 20/20/16 257/263/16 
f 102/102/94 258/264/248 103/103/95 
f 19/19/16 259/265/16 260/266/16 
f 261/267/249 262/268/250 263/269/251 
f 32/32/27 264/270/252 33/33/28 
f 31/31/26 265/271/253 29/29/24 
f 266/272/254 267/273/255 123/123/115 
f 158/158/150 121/121/113 120/120/112 
f 229/233/220 268/274/256 230/234/221 
f 268/274/256 269/275/257 230/234/221 
f 31/167/16 165/166/16 265/276/16 
f 270/277/258 68/68/63 187/189/178 
f 183/185/174 64/64/59 243/247/234 
f 63/63/58 243/247/234 64/64/59 
f 140/140/132 54/54/49 143/143/135 
f 204/208/196 205/209/197 215/278/259 
f 98/98/91 77/77/72 271/279/260 
f 184/186/175 225/229/216 182/184/173 
f 148/148/140 272/280/261 273/281/262 
f 159/159/151 145/145/137 121/121/113 
f 274/282/263 263/269/251 262/268/250 
f 111/111/103 78/78/73 97/97/90 
f 9/9/9 78/78/73 111/111/103 
f 88/283/264 175/177/166 275/284/265 
f 175/177/166 81/81/76 275/284/265 
f 67/67/62 66/66/61 216/220/208 
f 174/176/165 170/172/161 79/79/74 
f 79/79/74 170/172/161 80/80/75 
f 46/46/41 45/45/40 276/285/266 
f 22/286/267 277/287/268 74/74/69 
f 93/93/86 68/68/63 270/277/258 
f 217/221/209 216/220/208 66/66/61 
f 278/288/269 279/289/270 49/49/44 
f 261/267/249 280/290/271 262/268/250 
f 135/135/127 134/134/126 132/132/124 
f 39/39/34 128/128/120 281/291/272 
f 282/292/273 283/293/274 267/273/255 
f 282/292/273 267/273/255 266/272/254 
f 122/122/114 39/39/34 38/38/33 
f 284/294/275 74/74/69 1/1/1 
f 203/206/194 202/205/193 285/295/276 
f 125/125/117 155/155/147 120/120/112 
f 182/184/173 225/229/216 286/296/277 
f 9/9/9 287/297/278 77/77/72 
f 85/85/80 147/147/139 86/86/81 
f 288/298/279 68/68/63 104/104/96 
f 113/113/105 112/112/104 272/280/261 
f 116/116/108 237/241/228 129/129/121 
f 263/269/251 289/299/280 71/71/66 
f 290/300/281 289/299/280 263/269/251 
f 200/203/191 38/38/33 202/205/193 
f 83/83/78 151/151/143 90/90/83 
f 281/291/272 291/301/282 117/117/109 
f 292/302/283 194/197/185 293/303/284 
f 279/289/270 278/288/269 294/304/285 
f 280/290/271 73/73/68 295/305/286 
f 295/305/286 245/249/236 280/290/271 
f 161/162/154 163/164/156 166/306/287 
f 196/199/187 176/178/167 145/145/137 
f 63/63/58 65/65/60 291/301/282 
f 296/307/288 297/308/289 172/309/290 
f 281/291/272 127/127/119 291/301/282 
f 298/310/291 18/311/292 17/207/195 
f 197/200/188 299/312/293 208/212/200 
f 26/26/21 219/223/210 300/313/294 
f 178/314/16 301/315/182 302/316/100 
f 300/313/294 219/223/210 303/317/295 
f 221/225/212 120/120/112 155/155/147 
f 6/6/6 5/5/5 95/95/88 
f 237/241/228 116/116/108 304/318/296 
f 120/120/112 119/119/111 126/126/118 
f 60/60/55 305/319/297 61/61/56 
f 104/104/96 68/68/63 93/93/86 
f 52/52/47 306/320/298 157/157/149 
f 302/316/100 301/315/182 218/222/100 
f 43/43/38 42/42/37 307/321/299 
f 308/322/300 227/231/218 184/186/175 
f 144/144/136 143/143/135 211/215/203 
f 299/312/293 73/73/68 209/213/201 
f 171/173/162 309/323/301 149/149/141 
f 283/293/274 282/292/273 309/323/301 
f 144/144/136 193/196/184 142/142/134 
f 282/292/273 149/149/141 309/323/301 
f 191/194/182 247/324/182 21/21/16 
f 310/325/302 306/320/298 53/53/48 
f 311/326/303 104/104/96 92/92/85 
f 205/209/197 312/327/304 215/278/259 
f 313/328/305 314/329/306 154/154/146 
f 141/141/133 37/37/32 264/270/252 
f 213/330/15 16/16/15 18/18/15 
f 75/75/70 74/74/69 277/287/268 
f 277/287/268 308/322/300 75/75/70 
f 283/293/274 171/173/162 284/294/275 
f 315/331/307 246/250/237 245/249/236 
f 316/332/308 311/326/303 317/333/309 
f 113/113/105 289/299/280 290/300/281 
f 3/3/3 128/128/120 123/123/115 
f 123/123/115 267/273/255 3/3/3 
f 116/116/108 318/334/310 304/318/296 
f 3/3/3 2/2/2 127/127/119 
f 316/332/308 315/331/307 104/104/96 
f 319/335/182 164/165/16 152/336/311 
f 177/179/168 320/337/312 247/251/238 
f 321/338/313 43/43/38 295/305/286 
f 272/280/261 322/339/314 82/82/77 
f 50/50/45 185/187/176 51/51/46 
f 194/340/16 193/341/16 248/252/182 
f 180/182/171 320/337/312 176/178/167 
f 305/319/297 56/56/51 58/58/53 
f 37/37/32 36/36/31 246/250/237 
f 176/178/167 153/153/145 145/145/137 
f 33/33/28 246/250/237 317/333/309 
f 92/92/85 94/94/87 162/163/155 
f 296/342/315 174/176/165 175/177/166 
f 247/251/238 320/337/312 259/343/316 
f 304/318/296 323/344/317 60/60/55 
f 188/190/179 31/345/318 30/191/180 
f 254/260/245 169/171/160 242/246/233 
f 93/93/86 270/277/258 94/94/87 
f 323/344/317 324/346/319 255/261/246 
f 235/239/226 159/159/151 325/347/320 
f 173/175/164 284/294/275 171/173/162 
f 116/116/108 115/115/107 326/348/321 
f 88/283/264 275/284/265 89/349/322 
f 77/77/72 192/195/183 271/279/260 
f 195/198/186 327/350/323 35/35/30 
f 172/174/163 69/351/324 284/294/275 
f 264/270/252 32/32/27 106/106/98 
f 4/4/4 298/310/291 17/207/195 
f 306/320/298 310/325/302 45/45/40 
f 328/352/325 329/353/326 313/328/305 
f 58/58/53 269/275/257 330/354/327 
f 278/355/328 331/356/329 15/15/14 
f 15/15/14 331/356/329 13/13/12 
f 241/245/232 331/357/330 278/288/269 
f 95/95/88 206/210/198 205/209/197 
f 248/252/182 193/341/16 144/253/100 
f 20/20/16 108/108/100 332/358/182 
f 101/101/93 333/359/331 102/102/94 
f 333/359/331 108/360/332 102/102/94 
f 37/37/32 246/250/237 264/270/252 
f 187/189/178 189/192/181 188/190/179 
f 312/327/304 279/289/270 294/304/285 
f 44/44/39 151/151/143 83/83/78 
f 311/326/303 92/92/85 162/163/155 
f 10/10/10 231/361/10 17/17/10 
f 146/146/138 145/145/137 153/153/145 
f 246/250/237 316/332/308 317/333/309 
f 75/75/70 308/322/300 183/185/174 
f 211/215/203 334/362/333 144/144/136 
f 86/86/81 326/348/321 139/139/131 
f 147/147/139 335/363/334 326/348/321 
f 202/205/193 336/364/335 285/295/276 
f 55/55/50 140/140/132 99/99/92 
f 329/353/326 235/239/226 337/365/336 
f 338/366/337 241/245/232 34/34/29 
f 121/121/113 145/145/137 119/119/111 
f 59/59/54 237/241/228 304/318/296 
f 269/275/257 195/198/186 118/118/110 
f 12/12/10 339/367/10 340/368/82 
f 233/237/224 181/183/172 329/353/326 
f 341/369/338 244/248/235 253/259/244 
f 342/370/339 272/280/261 226/230/217 
f 343/371/340 329/353/326 328/352/325 
f 252/258/243 157/157/149 344/372/341 
f 94/160/152 30/30/25 76/76/71 
f 81/81/76 203/206/194 168/170/159 
f 188/190/179 345/373/342 31/345/318 
f 346/374/343 210/214/202 186/188/177 
f 114/114/106 274/282/263 327/350/323 
f 252/258/243 236/240/227 157/157/149 
f 330/354/327 198/201/189 305/319/297 
f 91/91/84 197/200/188 347/375/344 
f 287/297/278 192/195/183 77/77/72 
f 48/48/43 254/260/245 49/49/44 
f 21/21/16 348/376/16 190/193/100 
f 289/299/280 113/113/105 342/370/339 
f 289/299/280 342/370/339 207/211/199 
f 257/263/16 348/376/16 21/21/16 
f 349/377/345 240/244/231 232/236/223 
f 308/322/300 184/186/175 183/185/174 
f 152/336/311 218/222/100 319/335/182 
f 313/328/305 337/365/336 314/329/306 
f 58/58/53 195/198/186 269/275/257 
f 179/181/170 320/337/312 180/182/171 
f 81/81/76 201/204/192 203/206/194 
f 307/321/299 288/298/279 104/104/96 
f 213/217/205 312/378/346 350/379/347 
f 26/26/21 99/99/92 27/27/22 
f 293/380/16 194/340/16 248/252/16 
f 248/252/182 108/108/100 19/19/16 
f 50/50/45 184/186/175 185/187/176 
f 96/96/89 47/47/42 206/210/198 
f 272/280/261 83/83/78 226/230/217 
f 288/298/279 66/66/61 68/68/63 
f 176/178/167 320/337/312 177/179/168 
f 132/132/124 253/259/244 48/48/43 
f 119/119/111 146/146/138 67/67/62 
f 114/114/106 290/300/281 274/282/263 
f 53/53/48 306/320/298 250/256/241 
f 8/8/8 222/226/213 287/297/278 
f 62/62/57 256/262/247 57/57/52 
f 5/5/5 351/381/348 96/96/89 
f 84/84/79 252/258/243 220/224/211 
f 49/49/44 279/289/270 312/327/304 
f 351/381/348 47/47/42 96/96/89 
f 314/329/306 325/347/320 158/158/150 
f 103/103/95 346/382/349 228/383/350 
f 352/384/351 251/257/242 137/137/129 
f 222/226/213 223/227/214 353/385/352 
f 33/33/28 338/366/337 34/34/29 
f 305/319/297 58/58/53 330/354/327 
f 285/295/276 59/59/54 136/136/128 
f 306/320/298 45/45/40 157/157/149 
f 251/257/242 236/240/227 252/258/243 
f 172/174/163 284/294/275 173/175/164 
f 22/286/267 249/386/353 277/287/268 
f 255/261/246 62/62/57 56/56/51 
f 127/127/119 2/2/2 243/247/234 
f 201/204/192 200/203/191 202/205/193 
f 39/39/34 281/291/272 129/129/121 
f 143/143/135 239/243/230 140/140/132 
f 233/237/224 140/140/132 239/243/230 
f 162/163/155 94/94/87 354/387/354 
f 230/234/221 269/275/257 118/118/110 
f 113/113/105 272/280/261 342/370/339 
f 225/229/216 184/186/175 50/50/45 
f 253/259/244 254/260/245 48/48/43 
f 351/381/348 48/48/43 47/47/42 
f 179/181/170 233/237/224 260/388/355 
f 132/132/124 48/48/43 351/381/348 
f 18/311/292 204/208/196 215/278/259 
f 18/311/292 215/278/259 214/389/356 
f 186/188/177 210/214/202 355/390/357 
f 41/41/36 130/130/122 356/391/358 
f 270/277/258 234/238/225 94/94/87 
f 16/16/15 100/100/10 17/17/10 
f 180/182/171 196/199/187 235/239/226 
f 330/354/327 269/275/257 268/274/256 
f 206/210/198 312/327/304 205/209/197 
f 312/378/346 213/217/205 215/219/207 
f 197/200/188 110/110/102 299/312/293 
f 94/94/87 234/238/225 30/191/180 
f 171/173/162 283/293/274 309/323/301 
f 282/292/273 266/272/254 150/150/142 
f 245/249/236 35/35/30 280/290/271 
f 196/199/187 180/182/171 176/178/167 
f 260/266/16 293/380/16 19/19/16 
f 299/312/293 110/110/102 321/338/313 
f 321/338/313 110/110/102 41/41/36 
f 284/294/275 1/1/1 283/293/274 
f 276/285/266 303/317/295 219/223/210 
f 45/45/40 303/317/295 276/285/266 
f 134/134/126 341/369/338 132/132/124 
f 42/42/37 356/391/358 288/298/279 
f 357/392/359 318/334/310 116/116/108 
f 357/392/359 335/363/334 318/334/310 
f 258/393/360 210/214/202 346/374/343 
f 305/319/297 198/201/189 61/61/56 
f 126/126/118 119/119/111 67/67/62 
f 294/394/361 350/379/347 312/378/346 
f 1/1/1 267/273/255 283/293/274 
f 44/44/39 7/7/7 151/151/143 
f 35/35/30 262/268/250 280/290/271 
f 1/1/1 75/75/70 2/2/2 
f 2/2/2 75/75/70 243/247/234 
f 190/193/100 358/395/16 218/222/100 
f 201/204/192 122/122/114 200/203/191 
f 18/311/292 298/310/291 204/208/196 
f 95/95/88 204/208/196 298/310/291 
f 163/396/362 160/161/153 359/397/363 
f 194/197/185 292/302/283 142/142/134 
f 314/329/306 158/158/150 221/225/212 
f 233/237/224 179/181/170 181/183/172 
f 90/90/83 9/9/9 111/111/103 
f 59/59/54 304/318/296 60/60/55 
f 136/136/128 59/59/54 61/61/56 
f 125/125/117 124/124/116 192/195/183 
f 241/245/232 338/366/337 13/398/364 
f 189/192/181 345/373/342 188/190/179 
f 24/24/19 249/255/240 22/22/17 
f 260/388/355 259/343/316 179/181/170 
f 325/347/320 159/159/151 158/158/150 
f 287/297/278 222/226/213 192/195/183 
f 192/195/183 222/226/213 156/156/148 
f 251/257/242 352/384/351 236/240/227 
f 148/148/140 273/281/262 256/262/247 
f 18/18/15 214/399/10 213/330/15 
f 354/400/365 94/160/152 160/161/153 
f 342/370/339 226/230/217 347/375/344 
f 349/377/345 89/349/322 275/284/265 
f 24/24/19 101/101/93 103/103/95 
f 103/103/95 228/383/350 227/254/366 
f 201/204/192 238/242/229 122/122/114 
f 324/346/319 256/262/247 255/261/246 
f 142/142/134 292/302/283 239/243/230 
f 174/176/165 79/79/74 175/177/166 
f 360/401/367 349/377/345 12/402/368 
f 147/147/139 148/148/140 335/363/334 
f 278/288/269 242/246/233 241/245/232 
f 353/385/352 223/227/214 361/403/369 
f 58/58/53 57/57/52 195/198/186 
f 236/240/227 352/384/351 225/229/216 
f 238/242/229 123/123/115 122/122/114 
f 238/242/229 150/150/142 123/123/115 
f 99/99/92 233/237/224 329/353/326 
f 27/27/22 99/99/92 329/353/326 
f 120/120/112 126/126/118 125/125/117 
f 246/250/237 315/331/307 316/332/308 
f 308/322/300 249/386/353 227/231/218 
f 52/52/47 250/256/241 306/320/298 
f 313/328/305 329/353/326 337/365/336 
f 301/315/182 191/194/182 218/222/100 
f 341/369/338 253/259/244 132/132/124 
f 97/97/90 98/98/91 130/130/122 
f 130/130/122 217/221/209 66/66/61 
f 130/130/122 66/66/61 356/391/358 
f 264/270/252 246/250/237 33/33/28 
f 355/390/357 250/256/241 51/51/46 
f 343/371/340 28/28/23 27/27/22 
f 208/212/200 299/312/293 209/213/201 
f 361/403/369 8/8/8 46/46/41 
f 46/46/41 8/8/8 7/7/7 
f 347/375/344 208/212/200 207/211/199 
f 350/379/347 294/394/361 362/404/370 
f 343/371/340 353/385/352 28/28/23 
f 278/355/328 362/404/370 294/394/361 
f 361/403/369 276/285/266 219/223/210 
f 166/306/287 13/398/364 33/33/28 
f 338/366/337 33/33/28 13/398/364 
f 212/216/204 54/54/49 53/53/48 
f 291/301/282 127/127/119 63/63/58 
f 12/402/368 349/377/345 231/235/222 
f 47/47/42 49/49/44 206/210/198 
f 341/369/338 229/233/220 244/248/235 
f 57/57/52 256/262/247 327/350/323 
f 206/210/198 49/49/44 312/327/304 
f 134/134/126 136/136/128 61/61/56 
f 224/228/215 236/240/227 225/229/216 
f 166/168/157 359/397/363 14/14/13 
f 141/141/133 264/270/252 109/109/101 
f 50/50/45 52/52/47 224/228/215 
f 109/109/101 264/270/252 106/106/98 
f 322/339/314 344/372/341 44/44/39 
f 322/339/314 44/44/39 82/82/77 
f 227/254/239 24/24/19 103/103/95 
f 345/373/342 146/146/138 31/345/318 
f 189/192/181 146/146/138 345/373/342 
f 218/222/100 152/336/311 302/316/100 
f 19/19/16 21/21/16 259/265/16 
f 38/38/33 40/40/35 336/364/335 
f 10/10/10 12/12/10 231/361/10 
f 182/184/173 286/296/277 64/64/59 
f 233/237/224 292/302/283 260/388/355 
f 198/201/189 330/354/327 268/274/256 
f 81/81/76 168/170/159 167/169/158 
f 71/71/66 289/299/280 207/211/199 
f 98/98/91 271/279/260 217/221/209 
f 72/72/67 209/213/201 73/73/68 
f 42/42/37 288/298/279 307/321/299 
f 327/350/323 262/268/250 35/35/30 
f 223/227/214 8/8/8 361/403/369 
f 245/249/236 36/36/31 35/35/30 
f 285/295/276 136/136/128 135/135/127 
f 258/393/360 334/362/333 210/214/202 
f 97/97/90 78/78/73 77/77/72 
f 26/26/21 300/313/294 55/55/50 
f 169/171/160 32/32/27 34/34/29 
f 8/8/8 287/297/278 9/9/9 
f 129/129/121 281/291/272 117/117/109 
f 11/11/11 339/367/10 12/12/10 
f 362/404/370 278/355/328 15/15/14 
f 250/256/241 52/52/47 51/51/46 
f 293/303/284 260/388/355 292/302/283 
f 192/195/183 155/155/147 125/125/117 
f 168/170/159 203/206/194 285/295/276 
f 318/334/310 324/346/319 323/344/317 
f 228/232/219 185/187/176 184/186/175 
f 295/305/286 315/331/307 245/249/236 
f 210/214/202 212/216/204 355/390/357 
f 314/329/306 337/365/336 325/347/320 
f 340/368/82 360/405/15 12/12/10 
f 357/392/359 116/116/108 326/348/321 
f 220/224/211 252/258/243 344/372/341 
f 91/91/84 347/375/344 226/230/217 
f 235/239/226 329/353/326 181/183/172 
f 57/57/52 327/350/323 195/198/186 
f 73/73/68 321/338/313 295/305/286 
f 170/172/161 149/149/141 80/80/75 
f 28/28/23 361/403/369 219/223/210 
f 247/324/182 259/265/16 21/21/16 
f 149/149/141 282/292/273 150/150/142 
f 87/87/15 89/89/82 360/405/15 
f 256/262/247 114/114/106 327/350/323 
f 240/244/231 275/284/265 167/169/158 
f 303/317/295 45/45/40 310/325/302 
f 85/85/80 220/224/211 322/339/314 
f 138/138/130 84/84/79 139/139/131 
f 60/60/55 323/344/317 255/261/246 
f 186/188/177 355/390/357 51/51/46 
f 60/60/55 56/56/51 305/319/297 
f 197/200/188 208/212/200 347/375/344 
f 247/324/182 191/194/182 301/315/182 
f 198/201/189 268/274/256 229/233/220 
f 349/377/345 275/284/265 240/244/231 
f 340/368/82 87/87/15 360/405/15 
f 320/337/312 179/181/170 259/343/316 
f 161/162/154 317/333/309 311/326/303 
f 356/391/358 66/66/61 288/298/279 
f 173/175/164 171/173/162 170/172/161 
f 235/239/226 325/347/320 337/365/336 
f 65/65/60 115/115/107 117/117/109 
f 114/114/106 113/113/105 290/300/281 
f 314/329/306 221/225/212 154/154/146 
f 207/211/199 342/370/339 347/375/344 
f 332/406/371 108/360/332 333/359/331 
f 290/300/281 263/269/251 274/282/263 
f 102/102/94 144/407/372 334/408/373 
f 295/305/286 307/321/299 315/331/307 
f 4/4/4 6/6/6 298/310/291 
f 298/310/291 6/6/6 95/95/88 
f 71/71/66 261/267/249 263/269/251 
f 273/281/262 272/280/261 112/112/104 
f 87/87/15 363/409/10 88/88/82 
f 359/397/363 166/168/157 163/396/362 
f 296/307/288 363/410/374 297/308/289 
f 65/65/60 139/139/131 115/115/107 
f 296/342/315 175/177/166 88/283/264 
f 252/258/243 84/84/79 138/138/130 
f 210/214/202 334/362/333 211/215/203 
f 154/154/146 156/156/148 313/328/305 
f 319/335/182 218/222/100 358/395/16 
f 71/71/66 207/211/199 72/72/67 
f 60/60/55 255/261/246 56/56/51 
f 254/260/245 107/107/99 169/171/160 
f 128/128/120 39/39/34 123/123/115 
f 75/75/70 183/185/174 243/247/234 
f 49/49/44 254/260/245 278/288/269 
f 315/331/307 307/321/299 104/104/96 
f 53/53/48 55/55/50 310/325/302 
f 106/106/98 32/32/27 169/171/160 
f 102/102/94 334/408/373 258/264/248 
f 267/273/255 1/1/1 3/3/3 
f 324/346/319 318/334/310 335/363/334 
f 220/224/211 344/372/341 322/339/314 
f 284/294/275 69/351/324 22/286/267 
f 284/294/275 22/286/267 74/74/69 
f 228/232/219 346/374/343 185/187/176 
f 110/110/102 90/90/83 111/111/103 
f 88/411/375 363/410/374 296/307/288 
f 329/353/326 343/371/340 27/27/22 
f 295/305/286 43/43/38 307/321/299 
f 335/363/334 357/392/359 326/348/321 
f 137/137/129 251/257/242 138/138/130 
f 274/282/263 262/268/250 327/350/323 
f 275/284/265 81/81/76 167/169/158 
f 355/390/357 212/216/204 250/256/241 
f 168/170/159 285/295/276 135/135/127 
f 187/189/178 234/238/225 270/277/258 
f 286/296/277 137/137/129 65/65/60 
f 221/225/212 155/155/147 154/154/146 
f 302/412/376 152/152/144 153/153/145 
f 81/81/76 80/80/75 201/204/192 
f 80/80/75 238/242/229 201/204/192 
f 244/248/235 105/105/97 107/107/99 
f 42/42/37 41/41/36 356/391/358 
f 207/211/199 209/213/201 72/72/67 
f 185/187/176 346/374/343 186/188/177 
f 343/371/340 222/226/213 353/385/352 
f 59/59/54 285/295/276 336/364/335 
f 19/19/16 293/380/16 248/252/182 
f 271/279/260 124/124/116 217/221/209 
f 316/332/308 104/104/96 311/326/303 
f 326/348/321 86/86/81 147/147/139 
f 150/150/142 266/272/254 123/123/115 
f 124/124/116 126/126/118 67/67/62 
f 216/220/208 124/124/116 67/67/62 
f 277/287/268 249/386/353 308/322/300 
f 324/346/319 148/148/140 256/262/247 
f 148/148/140 322/339/314 272/280/261 
f 7/7/7 44/44/39 46/46/41 
f 335/363/334 148/148/140 324/346/319 
f 299/312/293 321/338/313 73/73/68 
f 24/24/19 25/25/20 101/101/93 
f 225/229/216 352/384/351 137/137/129 
f 321/338/313 41/41/36 43/43/38 
f 311/326/303 162/163/155 161/162/154 
f 212/216/204 211/215/203 143/143/135 
f 349/377/345 232/236/223 231/235/222 
f 360/401/367 89/349/322 349/377/345 
f 244/248/235 107/107/99 253/259/244 
f 68/68/63 67/67/62 187/189/178 
f 272/280/261 82/82/77 83/83/78 
f 313/328/305 343/371/340 328/352/325 
f 156/156/148 343/371/340 313/328/305 
f 230/234/221 141/141/133 109/109/101 
f 105/105/97 230/234/221 109/109/101 
f 164/165/16 319/335/182 165/166/16 
f 336/364/335 40/40/35 59/59/54 
f 273/281/262 112/112/104 256/262/247 
f 64/64/59 286/296/277 65/65/60 
f 241/245/232 169/171/160 34/34/29 
f 256/262/247 112/112/104 114/114/106 
f 131/131/123 135/135/127 132/132/124 
f 196/199/187 159/159/151 235/239/226 
f 166/306/287 33/33/28 317/333/309 
f 344/372/341 157/157/149 44/44/39 
f 212/216/204 143/143/135 54/54/49 
f 292/302/283 233/237/224 239/243/230 
f 310/325/302 300/313/294 303/317/295 
f 254/260/245 242/246/233 278/288/269 
f 40/40/35 39/39/34 237/241/228 
f 134/134/126 198/201/189 341/369/338 
f 198/201/189 229/233/220 341/369/338 
f 310/325/302 55/55/50 300/313/294 
f 128/128/120 127/127/119 281/291/272 
f 103/103/95 258/264/248 346/382/349 
f 64/64/59 183/185/174 182/184/173 
f 361/403/369 46/46/41 276/285/266 
f 139/139/131 326/348/321 115/115/107 
f 323/344/317 304/318/296 318/334/310 
f 156/156/148 222/226/213 343/371/340 
f 85/85/80 322/339/314 148/148/140 
f 108/360/332 144/407/372 102/102/94 
f 354/387/354 163/164/156 162/163/155 
f 230/234/221 118/118/110 141/141/133 
f 317/333/309 161/162/154 166/306/287 
f 354/400/365 160/161/153 163/396/362 
f 271/279/260 192/195/183 124/124/116 
f 202/205/193 38/38/33 336/364/335 
f 291/301/282 65/65/60 117/117/109 
f 137/137/129 286/296/277 225/229/216 
f 90/90/83 110/110/102 197/200/188 
f 296/342/315 172/174/163 174/176/165 
f 153/153/145 178/180/169 302/412/376 
f 71/71/66 280/290/271 261/267/249 
f 39/39/34 129/129/121 237/241/228 
f 353/385/352 361/403/369 28/28/23 
f 178/314/16 247/324/182 301/315/182 
f 164/413/377 146/146/138 152/152/144 
f 146/146/138 164/413/377 31/345/318 
f 280/290/271 71/71/66 73/73/68 
f 157/157/149 224/228/215 52/52/47 
f 69/69/64 172/309/290 70/70/65 
f 70/70/65 172/309/290 297/308/289 
f 241/245/232 13/398/364 331/357/330 
f 133/133/125 132/132/124 351/381/348 
f 5/5/5 199/202/190 351/381/348 
f 351/381/348 199/202/190 133/133/125 
f 232/236/223 199/202/190 5/5/5 
# 0 polygons - 692 triangles

